{
  "accessors": [
    {
      "bufferView": 1,
      "componentType": 5126,
      "count": 3163,
      "max": [
        54.79499816894531,
        -0.07199999690055847,
        77.80899810791016
      ],
      "min": [
        -44.395999908447266,
        -31.29800033569336,
        -72.13700103759766
      ],
      "type": "VEC3"
    },
    {
      "bufferView": 1,
      "byteOffset": 37956,
      "componentType": 5126,
      "count": 3163,
      "max": [
        1.0,
        0.9999882578849792,
        0.9999998807907104
      ],
      "min": [
        -1.0,
        -0.9999622106552124,
        -1.0
      ],
      "type": "VEC3"
    },
    {
      "bufferView": 0,
      "componentType": 5125,
      "count": 9726,
      "type": "SCALAR"
    }
  ],
  "asset": {
    "extras": {
      "author": "tg (https://sketchfab.com/tgaaaaaaaaaa)",
      "license": "CC-BY-4.0 (http://creativecommons.org/licenses/by/4.0/)",
      "source": "https://sketchfab.com/3d-models/nike-illusion-1fe89df3ba5e45f28b0fdabc760274c7",
      "title": "Nike Illusion"
    },
    "generator": "Sketchfab-12.67.0",
    "version": "2.0"
  },
  "bufferViews": [
    {
      "buffer": 0,
      "byteLength": 38904,
      "name": "floatBufferViews",
      "target": 34963
    },
    {
      "buffer": 0,
      "byteLength": 75912,
      "byteOffset": 38904,
      "byteStride": 12,
      "name": "floatBufferViews",
      "target": 34962
    }
  ],
  "buffers": [
    {
      "byteLength": 114816,
      "uri": "scene.bin"
    }
  ],
  "materials": [
    {
      "doubleSided": true,
      "name": "color_11909273",
      "pbrMetallicRoughness": {
        "baseColorFactor": [
          0.7851566248065514,
          0.8464433773127846,
          0.3188759476450119,
          1.0
        ],
        "metallicFactor": 0.44968208566213747,
        "roughnessFactor": 0.0
      }
    }
  ],
  "meshes": [
    {
      "name": "Object_0",
      "primitives": [
        {
          "attributes": {
            "NORMAL": 1,
            "POSITION": 0
          },
          "indices": 2,
          "material": 0,
          "mode": 4
        }
      ]
    }
  ],
  "nodes": [
    {
      "children": [
        1
      ],
      "matrix": [
        1.0,
        0.0,
        0.0,
        0.0,
        0.0,
        -1.0,
        -4.440892098500626e-16,
        0.0,
        0.0,
        4.440892098500626e-16,
        -1.0,
        0.0,
        0.0,
        -12.848955154418949,
        18.521036148071286,
        1.0
      ],
      "name": "Sketchfab_model"
    },
    {
      "children": [
        2
      ],
      "name": "tinker.obj.cleaner.materialmerger.gles"
    },
    {
      "mesh": 0,
      "name": "Object_2"
    }
  ],
  "scene": 0,
  "scenes": [
    {
      "name": "Sketchfab_Scene",
      "nodes": [
        0
      ]
    }
  ]
}
